<?xml version="1.0" encoding="utf-8"?>
<!-- Generator: Adobe Illustrator 24.1.2, SVG Export Plug-In . SVG Version: 6.00 Build 0)  -->
<svg version="1.1" id="Layer_1" xmlns="http://www.w3.org/2000/svg" xmlns:xlink="http://www.w3.org/1999/xlink" x="0px" y="0px"
	 viewBox="0 0 388.13 357.08" style="enable-background:new 0 0 388.13 357.08;" xml:space="preserve">
<style type="text/css">
	.st0{fill:#999999;}
	.st1{fill:#383739;}
	.st2{fill:#231F20;}
	.st3{fill:#EBEBEC;}
	.st4{fill:#C0C2C4;}
	.st5{fill:#534741;}
	.st6{fill:#FFFFFF;}
	.st7{fill:#62493E;}
	.st8{fill:#312017;}
	.st9{fill:#9FA1A4;}
	.st10{fill:#C9CACC;}
</style>
<g>
	<path class="st0" d="M304.69,58.41c-24.1-1.17-32.72,12.25-35.79,22.62c-20.98-10.68-45.56-16.84-71.85-16.84
		s-50.88,6.15-71.85,16.84c-3.08-10.37-11.7-23.78-35.79-22.62c-43.27,2.09-60.25,55.5-18.67,73.8
		c-8.27,15.02-12.9,31.77-12.9,49.43c0,21.78,7.03,42.16,19.28,59.65c-3.61,4.13-5.77,8.51-6.24,13.05c-0.07,0.61-0.1,1.23-0.1,1.84
		c0,26.29,56.54,47.61,126.27,47.61c69.74,0,126.27-21.32,126.27-47.61c0-0.62-0.03-1.23-0.1-1.84c-0.06-0.61-0.16-1.21-0.28-1.82
		c0.23-1.17,0.38-2.34,0.38-3.53c0-3.98-1.32-7.84-3.77-11.54c0,0,0,0,0,0c10.65-16.6,16.72-35.61,16.72-55.82
		c0-17.66-4.63-34.4-12.9-49.43C364.95,113.91,347.96,60.5,304.69,58.41z M322.51,250.83c0.08,0.26,0.15,0.53,0.21,0.79
		C322.66,251.36,322.59,251.09,322.51,250.83z M317,241.29c0.46,0.52,0.88,1.05,1.29,1.58C317.88,242.34,317.45,241.82,317,241.29z
		 M318.68,243.4c0.27,0.37,0.53,0.73,0.78,1.1C319.21,244.13,318.95,243.77,318.68,243.4z M319.86,245.11
		c0.24,0.38,0.46,0.75,0.67,1.13C320.32,245.87,320.1,245.49,319.86,245.11z M320.85,246.8c0.26,0.5,0.51,1,0.73,1.5
		C321.35,247.8,321.11,247.3,320.85,246.8z M321.91,249.11c0.11,0.28,0.22,0.56,0.31,0.84
		C322.12,249.66,322.02,249.39,321.91,249.11z M316.99,241.29L316.99,241.29c0,0,0.01-0.01,0.01-0.01
		C316.99,241.28,316.99,241.28,316.99,241.29z"/>
	<g>
		<g>
			<g>
				<path class="st1" d="M120.92,87.57c0,0,1.41-36.09-37.48-34.21c-48.1,2.33-63.74,68.09-2.49,78.51L120.92,87.57z"/>
				<path class="st2" d="M111.69,92.96c0,0,0.9-23.17-24.07-21.97c-30.89,1.49-40.93,43.72-1.6,50.42L111.69,92.96z"/>
			</g>
			<g>
				<path class="st1" d="M261.25,87.57c0,0-1.41-36.09,37.48-34.21c48.1,2.33,63.74,68.09,2.49,78.51L261.25,87.57z"/>
				<path class="st2" d="M270.47,92.96c0,0-0.9-23.17,24.07-21.97c30.89,1.49,40.93,43.72,1.6,50.42L270.47,92.96z"/>
			</g>
		</g>
		<path class="st3" d="M330.3,176.59c0-64.87-62.33-117.45-139.21-117.45S51.87,111.73,51.87,176.59c0,21.78,7.03,42.16,19.28,59.65
			c-4.09,4.69-6.34,9.69-6.34,14.89c0,26.29,56.53,47.61,126.27,47.61c69.74,0,126.27-21.32,126.27-47.61
			c0-5.2-2.24-10.2-6.34-14.89C323.27,218.75,330.3,198.37,330.3,176.59z"/>
		<g>
			<path class="st4" d="M191.08,291.55c-66.59,0-121.1-19.44-125.89-44.08c-0.25,1.21-0.38,2.43-0.38,3.66
				c0,26.29,56.53,47.61,126.27,47.61c69.74,0,126.27-21.32,126.27-47.61c0-1.23-0.14-2.45-0.38-3.66
				C312.18,272.11,257.67,291.55,191.08,291.55z"/>
			<path class="st3" d="M316.98,247.47c0.23-1.17,0.38-2.34,0.38-3.53c0-3.98-1.32-7.84-3.77-11.54c-0.83,1.29-1.68,2.57-2.56,3.84
				C314.15,239.81,316.18,243.58,316.98,247.47z"/>
		</g>
		<path class="st1" d="M163.29,130.88c-8.54-3.23-18.12-2.72-26.9-0.76c-9.72,2.17-19.05,6.19-27.45,11.52
			c-10.46,6.63-19.36,15.73-25.8,26.29c-7.35,12.05-12.16,27.91-5.62,41.37c5.6,11.51,17.97,17.54,30.13,19.38
			c12.31,1.86,25.21-0.46,36.21-6.23c10.86-5.69,19.81-14.62,25.91-25.22c6.1-10.59,9.35-22.79,9.16-35.02
			c-0.1-6.3-1.02-12.78-3.12-18.74c-1.05-2.99-2.63-5.61-4.56-7.93C168.9,133.56,166.2,131.98,163.29,130.88z"/>
		<path class="st1" d="M217.86,130.88c8.54-3.23,18.12-2.72,26.9-0.76c9.72,2.17,19.05,6.19,27.45,11.52
			c10.46,6.63,19.36,15.73,25.8,26.29c7.35,12.05,12.16,27.91,5.62,41.37c-5.6,11.51-17.97,17.54-30.13,19.38
			c-12.31,1.86-25.21-0.46-36.21-6.23c-10.86-5.69-19.81-14.62-25.91-25.22c-6.1-10.59-9.35-22.79-9.16-35.02
			c0.1-6.3,1.02-12.78,3.12-18.74c1.05-2.99,2.63-5.61,4.56-7.93C212.25,133.56,214.96,131.98,217.86,130.88z"/>
		<path class="st5" d="M117.79,253.62c-1.16,0-2.32-0.39-3.28-1.18c-2.19-1.81-2.5-5.06-0.69-7.26
			c1.26-1.53,31.43-37.41,75.42-38.77c27.62-0.86,54.15,12.11,78.89,38.53c1.95,2.08,1.84,5.34-0.24,7.29
			c-2.08,1.95-5.34,1.84-7.29-0.24c-22.63-24.16-46.55-36.03-71.05-35.27c-39.39,1.22-67.52,34.69-67.8,35.03
			C120.75,252.98,119.27,253.62,117.79,253.62z"/>
		<g>
			<g>
				<g>
					<circle class="st6" cx="137.87" cy="173.26" r="26.88"/>
					<g>
						
							<ellipse transform="matrix(0.7071 -0.7071 0.7071 0.7071 -82.137 148.2337)" class="st7" cx="137.87" cy="173.27" rx="20.07" ry="20.07"/>
						<g>
							
								<ellipse transform="matrix(0.9871 -0.1602 0.1602 0.9871 -25.9674 24.3206)" class="st8" cx="137.87" cy="173.22" rx="16.64" ry="16.64"/>
							<path class="st6" d="M134.72,165.11c0,1.69-1.37,3.06-3.06,3.06c-1.69,0-3.06-1.37-3.06-3.06c0-1.69,1.37-3.06,3.06-3.06
								C133.35,162.04,134.72,163.42,134.72,165.11z"/>
							<path class="st6" d="M128.01,172.56c0,1.06-0.86,1.93-1.93,1.93c-1.06,0-1.93-0.86-1.93-1.93c0-1.06,0.86-1.93,1.93-1.93
								C127.15,170.63,128.01,171.49,128.01,172.56z"/>
						</g>
					</g>
				</g>
			</g>
			<g>
				<g>
					<circle class="st6" cx="244.3" cy="173.26" r="26.88"/>
					<g>
						
							<ellipse transform="matrix(0.9239 -0.3827 0.3827 0.9239 -47.7092 106.6792)" class="st7" cx="244.3" cy="173.27" rx="20.07" ry="20.07"/>
						<g>
							
								<ellipse transform="matrix(0.1602 -0.9871 0.9871 0.1602 34.1826 386.624)" class="st8" cx="244.3" cy="173.22" rx="16.64" ry="16.64"/>
							<path class="st6" d="M241.16,165.11c0,1.69-1.37,3.06-3.06,3.06c-1.69,0-3.06-1.37-3.06-3.06c0-1.69,1.37-3.06,3.06-3.06
								C239.79,162.04,241.16,163.42,241.16,165.11z"/>
							<path class="st6" d="M234.45,172.56c0,1.06-0.86,1.93-1.93,1.93c-1.06,0-1.93-0.86-1.93-1.93c0-1.06,0.86-1.93,1.93-1.93
								C233.59,170.63,234.45,171.49,234.45,172.56z"/>
						</g>
					</g>
				</g>
			</g>
		</g>
		<g>
			<g>
				<path class="st9" d="M121.05,128.06c-0.42,0-0.85-0.12-1.22-0.37c-1.01-0.68-1.29-2.04-0.62-3.05
					c0.09-0.14,9.24-13.57,25.29-5.25c1.08,0.56,1.51,1.89,0.94,2.98c-0.56,1.08-1.89,1.51-2.98,0.94
					c-12.47-6.47-19.29,3.35-19.58,3.77C122.46,127.72,121.76,128.06,121.05,128.06z"/>
			</g>
			<g>
				<path class="st9" d="M261.12,128.07c-0.71,0-1.41-0.34-1.84-0.98c-0.29-0.43-7.11-10.24-19.58-3.77
					c-1.08,0.57-2.42,0.14-2.98-0.94c-0.56-1.08-0.14-2.42,0.94-2.98c16.05-8.32,25.2,5.11,25.29,5.25c0.67,1.02,0.4,2.39-0.62,3.06
					C261.96,127.95,261.54,128.07,261.12,128.07z"/>
			</g>
		</g>
		<g>
			<g>
				<g>
					<g>
						<path class="st10" d="M191.08,256.65c-0.81,0-1.47-0.66-1.47-1.47v-20.76c0-0.81,0.66-1.47,1.47-1.47
							c0.81,0,1.47,0.66,1.47,1.47v20.76C192.56,255.99,191.9,256.65,191.08,256.65z"/>
						<path class="st10" d="M172.12,272.99c-3.92,0-7.7-1.15-10.75-3.41c-11.63-8.62-4.92-19.83-4.85-19.94
							c0.43-0.69,1.33-0.91,2.03-0.48c0.69,0.43,0.91,1.33,0.48,2.02l0,0c-0.22,0.37-5.34,9.05,4.09,16.04
							c4.63,3.43,11.36,3.77,17.13,0.87c5.86-2.95,9.36-8.46,9.36-14.74c0-0.81,0.66-1.47,1.47-1.47c0.81,0,1.47,0.66,1.47,1.47
							c0,7.41-4.11,13.91-10.98,17.37C178.55,272.23,175.29,272.99,172.12,272.99z"/>
						<path class="st10" d="M210.05,272.99c-3.17,0-6.43-0.75-9.46-2.28c-6.88-3.46-10.98-9.96-10.98-17.37
							c0-0.81,0.66-1.47,1.47-1.47c0.81,0,1.47,0.66,1.47,1.47c0,6.28,3.5,11.79,9.36,14.74c5.77,2.91,12.5,2.57,17.13-0.87
							c9.43-6.98,4.31-15.67,4.09-16.04c-0.42-0.69-0.2-1.6,0.49-2.02c0.69-0.42,1.6-0.21,2.02,0.48
							c0.07,0.11,6.78,11.33-4.85,19.94C217.75,271.84,213.97,272.99,210.05,272.99z"/>
					</g>
				</g>
			</g>
			<path class="st1" d="M214.06,229.8c-3.83-2.43-12.42-2.51-14.39-2.5c-1.23-0.01-15.93-0.01-17.16,0
				c-1.97-0.01-10.55,0.07-14.39,2.5c-9.42,5.97,6.35,12.26,22.2,12.7c0.01,0.01,0.02,0.02,0.02,0.02c0.25,0,0.5,0,0.75-0.01
				c0.25,0,0.5,0.01,0.75,0.01c0,0,0.01-0.01,0.02-0.02C207.71,242.06,223.47,235.77,214.06,229.8z"/>
		</g>
	</g>
</g>
</svg>
