<?xml version="1.0" encoding="utf-8"?>
<!-- Generator: Adobe Illustrator 24.1.2, SVG Export Plug-In . SVG Version: 6.00 Build 0)  -->
<svg version="1.1" id="Layer_1" xmlns="http://www.w3.org/2000/svg" xmlns:xlink="http://www.w3.org/1999/xlink" x="0px" y="0px"
	 viewBox="0 0 265.33 55.43" style="enable-background:new 0 0 265.33 55.43;" xml:space="preserve">
<style type="text/css">
	.st0{fill:#999999;}
	.st1{fill:#383739;}
	.st2{fill:#231F20;}
	.st3{fill:#EBEBEC;}
	.st4{fill:#C0C2C4;}
	.st5{fill:#534741;}
	.st6{fill:#FFFFFF;}
	.st7{fill:#62493E;}
	.st8{fill:#312017;}
	.st9{fill:#9FA1A4;}
	.st10{fill:#C9CACC;}
	.st11{font-family:'Consolas';}
	.st12{font-size:36px;}
</style>
<g>
	<path class="st0" d="M53.6,6.79c-4.38-0.21-5.95,2.23-6.51,4.11c-3.82-1.94-8.29-3.06-13.07-3.06s-9.25,1.12-13.07,3.06
		c-0.56-1.89-2.13-4.33-6.51-4.11c-7.87,0.38-10.96,10.1-3.4,13.43C9.54,22.95,8.7,26,8.7,29.21c0,3.96,1.28,7.67,3.51,10.85
		c-0.66,0.75-1.05,1.55-1.13,2.37c-0.01,0.11-0.02,0.22-0.02,0.34c0,4.78,10.28,8.66,22.97,8.66c12.69,0,22.97-3.88,22.97-8.66
		c0-0.11-0.01-0.22-0.02-0.34c-0.01-0.11-0.03-0.22-0.05-0.33c0.04-0.21,0.07-0.43,0.07-0.64c0-0.72-0.24-1.43-0.69-2.1c0,0,0,0,0,0
		c1.94-3.02,3.04-6.48,3.04-10.15c0-3.21-0.84-6.26-2.35-8.99C64.56,16.89,61.47,7.17,53.6,6.79z M56.84,41.8
		c0.01,0.05,0.03,0.1,0.04,0.14C56.87,41.89,56.86,41.84,56.84,41.8z M55.84,40.06c0.08,0.1,0.16,0.19,0.23,0.29
		C56,40.25,55.92,40.16,55.84,40.06z M56.15,40.44c0.05,0.07,0.1,0.13,0.14,0.2C56.24,40.58,56.19,40.51,56.15,40.44z M56.36,40.76
		c0.04,0.07,0.08,0.14,0.12,0.21C56.44,40.89,56.4,40.82,56.36,40.76z M56.54,41.06c0.05,0.09,0.09,0.18,0.13,0.27
		C56.63,41.24,56.59,41.15,56.54,41.06z M56.73,41.48c0.02,0.05,0.04,0.1,0.06,0.15C56.77,41.58,56.75,41.53,56.73,41.48z
		 M55.84,40.06L55.84,40.06C55.84,40.06,55.84,40.06,55.84,40.06C55.84,40.06,55.84,40.06,55.84,40.06z"/>
	<g>
		<g>
			<g>
				<path class="st1" d="M20.17,12.1c0,0,0.26-6.57-6.82-6.22C4.6,6.3,1.76,18.26,12.9,20.16L20.17,12.1z"/>
				<path class="st2" d="M18.49,13.08c0,0,0.16-4.22-4.38-4c-5.62,0.27-7.45,7.95-0.29,9.17L18.49,13.08z"/>
			</g>
			<g>
				<path class="st1" d="M45.7,12.1c0,0-0.26-6.57,6.82-6.22c8.75,0.42,11.59,12.39,0.45,14.28L45.7,12.1z"/>
				<path class="st2" d="M47.38,13.08c0,0-0.16-4.22,4.38-4c5.62,0.27,7.45,7.95,0.29,9.17L47.38,13.08z"/>
			</g>
		</g>
		<path class="st3" d="M58.26,28.29c0-11.8-11.34-21.37-25.32-21.37S7.61,16.49,7.61,28.29c0,3.96,1.28,7.67,3.51,10.85
			c-0.74,0.85-1.15,1.76-1.15,2.71c0,4.78,10.28,8.66,22.97,8.66c12.69,0,22.97-3.88,22.97-8.66c0-0.95-0.41-1.86-1.15-2.71
			C56.98,35.96,58.26,32.25,58.26,28.29z"/>
		<g>
			<path class="st4" d="M32.93,49.2c-12.11,0-22.03-3.54-22.9-8.02c-0.04,0.22-0.07,0.44-0.07,0.67c0,4.78,10.28,8.66,22.97,8.66
				c12.69,0,22.97-3.88,22.97-8.66c0-0.22-0.02-0.45-0.07-0.67C54.96,45.67,45.05,49.2,32.93,49.2z"/>
			<path class="st3" d="M55.84,41.18c0.04-0.21,0.07-0.43,0.07-0.64c0-0.72-0.24-1.43-0.69-2.1c-0.15,0.24-0.31,0.47-0.47,0.7
				C55.32,39.79,55.69,40.48,55.84,41.18z"/>
		</g>
		<path class="st1" d="M27.88,19.98c-1.55-0.59-3.3-0.49-4.89-0.14c-1.77,0.39-3.47,1.13-4.99,2.09c-1.9,1.21-3.52,2.86-4.69,4.78
			c-1.34,2.19-2.21,5.08-1.02,7.53c1.02,2.09,3.27,3.19,5.48,3.53c2.24,0.34,4.59-0.08,6.59-1.13c1.97-1.03,3.6-2.66,4.71-4.59
			c1.11-1.93,1.7-4.15,1.67-6.37c-0.02-1.15-0.19-2.33-0.57-3.41c-0.19-0.54-0.48-1.02-0.83-1.44
			C28.9,20.46,28.41,20.18,27.88,19.98z"/>
		<path class="st1" d="M37.81,19.98c1.55-0.59,3.3-0.49,4.89-0.14c1.77,0.39,3.47,1.13,4.99,2.09c1.9,1.21,3.52,2.86,4.69,4.78
			c1.34,2.19,2.21,5.08,1.02,7.53c-1.02,2.09-3.27,3.19-5.48,3.53c-2.24,0.34-4.59-0.08-6.59-1.13c-1.97-1.03-3.6-2.66-4.71-4.59
			c-1.11-1.93-1.7-4.15-1.67-6.37c0.02-1.15,0.19-2.33,0.57-3.41c0.19-0.54,0.48-1.02,0.83-1.44
			C36.79,20.46,37.28,20.18,37.81,19.98z"/>
		<path class="st5" d="M19.6,41.39c-0.21,0-0.42-0.07-0.6-0.22c-0.4-0.33-0.46-0.92-0.13-1.32c0.23-0.28,5.72-6.81,13.72-7.05
			c5.02-0.16,9.85,2.2,14.35,7.01c0.35,0.38,0.33,0.97-0.04,1.33c-0.38,0.35-0.97,0.33-1.33-0.04c-4.12-4.4-8.47-6.55-12.92-6.42
			c-7.16,0.22-12.28,6.31-12.33,6.37C20.14,41.28,19.87,41.39,19.6,41.39z"/>
		<g>
			<g>
				<g>
					<circle class="st6" cx="23.25" cy="27.69" r="4.89"/>
					<g>
						
							<ellipse transform="matrix(0.7071 -0.7071 0.7071 0.7071 -12.7659 24.5517)" class="st7" cx="23.25" cy="27.69" rx="3.65" ry="3.65"/>
						<g>
							
								<ellipse transform="matrix(0.9871 -0.1602 0.1602 0.9871 -4.1333 4.0823)" class="st8" cx="23.25" cy="27.68" rx="3.03" ry="3.03"/>
							<path class="st6" d="M22.68,26.2c0,0.31-0.25,0.56-0.56,0.56c-0.31,0-0.56-0.25-0.56-0.56c0-0.31,0.25-0.56,0.56-0.56
								C22.43,25.64,22.68,25.89,22.68,26.2z"/>
							<path class="st6" d="M21.46,27.56c0,0.19-0.16,0.35-0.35,0.35c-0.19,0-0.35-0.16-0.35-0.35c0-0.19,0.16-0.35,0.35-0.35
								C21.3,27.21,21.46,27.36,21.46,27.56z"/>
						</g>
					</g>
				</g>
			</g>
			<g>
				<g>
					<circle class="st6" cx="42.62" cy="27.69" r="4.89"/>
					<g>
						
							<ellipse transform="matrix(0.9239 -0.3827 0.3827 0.9239 -7.3509 18.4156)" class="st7" cx="42.62" cy="27.69" rx="3.65" ry="3.65"/>
						<g>
							
								<ellipse transform="matrix(0.1602 -0.9871 0.9871 0.1602 8.4685 65.3098)" class="st8" cx="42.62" cy="27.68" rx="3.03" ry="3.03"/>
							<path class="st6" d="M42.04,26.2c0,0.31-0.25,0.56-0.56,0.56s-0.56-0.25-0.56-0.56c0-0.31,0.25-0.56,0.56-0.56
								S42.04,25.89,42.04,26.2z"/>
							<path class="st6" d="M40.82,27.56c0,0.19-0.16,0.35-0.35,0.35c-0.19,0-0.35-0.16-0.35-0.35c0-0.19,0.16-0.35,0.35-0.35
								C40.67,27.21,40.82,27.36,40.82,27.56z"/>
						</g>
					</g>
				</g>
			</g>
		</g>
		<g>
			<g>
				<path class="st9" d="M20.19,19.46c-0.08,0-0.15-0.02-0.22-0.07c-0.18-0.12-0.23-0.37-0.11-0.56c0.02-0.02,1.68-2.47,4.6-0.95
					c0.2,0.1,0.27,0.34,0.17,0.54c-0.1,0.2-0.34,0.27-0.54,0.17c-2.27-1.18-3.51,0.61-3.56,0.69C20.45,19.4,20.32,19.46,20.19,19.46
					z"/>
			</g>
			<g>
				<path class="st9" d="M45.67,19.46c-0.13,0-0.26-0.06-0.33-0.18c-0.05-0.08-1.29-1.86-3.56-0.69c-0.2,0.1-0.44,0.03-0.54-0.17
					c-0.1-0.2-0.03-0.44,0.17-0.54c2.92-1.51,4.58,0.93,4.6,0.95c0.12,0.19,0.07,0.43-0.11,0.56
					C45.83,19.44,45.75,19.46,45.67,19.46z"/>
			</g>
		</g>
		<g>
			<g>
				<g>
					<g>
						<path class="st10" d="M32.93,42.85c-0.15,0-0.27-0.12-0.27-0.27v-3.78c0-0.15,0.12-0.27,0.27-0.27c0.15,0,0.27,0.12,0.27,0.27
							v3.78C33.2,42.73,33.08,42.85,32.93,42.85z"/>
						<path class="st10" d="M29.48,45.83c-0.71,0-1.4-0.21-1.96-0.62c-2.12-1.57-0.89-3.61-0.88-3.63c0.08-0.13,0.24-0.17,0.37-0.09
							c0.13,0.08,0.17,0.24,0.09,0.37l0,0c-0.04,0.07-0.97,1.65,0.74,2.92c0.84,0.62,2.07,0.69,3.12,0.16
							c1.07-0.54,1.7-1.54,1.7-2.68c0-0.15,0.12-0.27,0.27-0.27c0.15,0,0.27,0.12,0.27,0.27c0,1.35-0.75,2.53-2,3.16
							C30.65,45.69,30.06,45.83,29.48,45.83z"/>
						<path class="st10" d="M36.38,45.83c-0.58,0-1.17-0.14-1.72-0.41c-1.25-0.63-2-1.81-2-3.16c0-0.15,0.12-0.27,0.27-0.27
							c0.15,0,0.27,0.12,0.27,0.27c0,1.14,0.64,2.14,1.7,2.68c1.05,0.53,2.27,0.47,3.12-0.16c1.71-1.27,0.78-2.85,0.74-2.92
							c-0.08-0.13-0.04-0.29,0.09-0.37c0.13-0.08,0.29-0.04,0.37,0.09c0.01,0.02,1.23,2.06-0.88,3.63
							C37.79,45.62,37.1,45.83,36.38,45.83z"/>
					</g>
				</g>
			</g>
			<path class="st1" d="M37.11,37.97c-0.7-0.44-2.26-0.46-2.62-0.46c-0.22,0-2.9,0-3.12,0c-0.36,0-1.92,0.01-2.62,0.46
				c-1.71,1.09,1.15,2.23,4.04,2.31c0,0,0,0,0,0c0.05,0,0.09,0,0.14,0c0.05,0,0.09,0,0.14,0c0,0,0,0,0,0
				C35.96,40.2,38.83,39.06,37.11,37.97z"/>
		</g>
	</g>
</g>
<text transform="matrix(1 0 0 1 66.5652 36.0001)" class="st11 st12">Panda-Mart</text>
</svg>
